HIERARCHY
ROOT Hips
{
	OFFSET 0.000000 87.230942 0.000000
	CHANNELS 6 Xposition Yposition Zposition Xrotation Yrotation Zrotation
	JOINT Pelvis
	{
		OFFSET 0.000000 0.000000 0.000000
		CHANNELS 3 Xrotation Yrotation Zrotation
		JOINT LeftUpLeg
		{
			OFFSET 12.017000 -9.376404 -2.439400
			CHANNELS 3 Xrotation Yrotation Zrotation
			JOINT LeftLeg
			{
				OFFSET -0.007312 -32.846973 2.110600
				CHANNELS 3 Xrotation Yrotation Zrotation
				JOINT LeftFoot
				{
					OFFSET 0.007312 -32.065170 -0.570400
					CHANNELS 3 Xrotation Yrotation Zrotation
					JOINT LeftToeBase
					{
						OFFSET 0.728300 -11.045900 13.180700
						CHANNELS 3 Xrotation Yrotation Zrotation
						End Site
						{
							OFFSET 0.000000 17.212589 0.000000
						}
					}
				}
				JOINT LeftPantLeg
				{
					OFFSET 0.002788 -16.709013 -3.143600
					CHANNELS 3 Xrotation Yrotation Zrotation
					End Site
					{
						OFFSET -0.605125 24.528742 0.000000
					}
				}
			}
			JOINT Left_Butt
			{
				OFFSET -6.630234 1.326584 -3.183700
				CHANNELS 3 Xrotation Yrotation Zrotation
				End Site
				{
					OFFSET -0.498041 20.188049 0.000000
				}
			}
		}
		JOINT RightUpLeg
		{
			OFFSET -11.717000 -9.376404 -2.439400
			CHANNELS 3 Xrotation Yrotation Zrotation
			JOINT RightLeg
			{
				OFFSET -0.003241 -32.846912 2.110600
				CHANNELS 3 Xrotation Yrotation Zrotation
				JOINT RightFoot
				{
					OFFSET 0.003241 -32.065136 -0.570500
					CHANNELS 3 Xrotation Yrotation Zrotation
					JOINT RightToeBase
					{
						OFFSET -0.728300 -11.045901 13.180700
						CHANNELS 3 Xrotation Yrotation Zrotation
						End Site
						{
							OFFSET 0.000000 17.212593 0.000000
						}
					}
				}
				JOINT RightPantLeg
				{
					OFFSET 0.008142 -16.708982 -3.143700
					CHANNELS 3 Xrotation Yrotation Zrotation
					End Site
					{
						OFFSET 0.605088 24.528715 0.000000
					}
				}
			}
			JOINT Right_Butt
			{
				OFFSET 6.630732 1.326584 -3.183700
				CHANNELS 3 Xrotation Yrotation Zrotation
				End Site
				{
					OFFSET 0.498015 20.188240 0.000000
				}
			}
		}
	}
	JOINT Spine
	{
		OFFSET -0.062400 7.848404 3.918300
		CHANNELS 3 Xrotation Yrotation Zrotation
		JOINT Spine1
		{
			OFFSET -0.072800 11.422302 0.713400
			CHANNELS 3 Xrotation Yrotation Zrotation
			JOINT Spine2
			{
				OFFSET -0.083200 13.054001 -1.931600
				CHANNELS 3 Xrotation Yrotation Zrotation
				JOINT Neck
				{
					OFFSET -0.092200 14.121796 -5.138800
					CHANNELS 3 Xrotation Yrotation Zrotation
					JOINT Head
					{
						OFFSET 0.000200 10.447403 -0.842000
						CHANNELS 3 Xrotation Yrotation Zrotation
						JOINT Visor
						{
							OFFSET 0.457100 25.671204 16.550400
							CHANNELS 3 Xrotation Yrotation Zrotation
							End Site
							{
								OFFSET 0.000000 26.061493 0.000000
							}
						}
						JOINT HairMidA
						{
							OFFSET 0.459400 31.585403 8.437400
							CHANNELS 3 Xrotation Yrotation Zrotation
							End Site
							{
								OFFSET 0.000000 26.061493 0.000000
							}
						}
						JOINT HairMidB
						{
							OFFSET 0.464000 33.309204 -8.389700
							CHANNELS 3 Xrotation Yrotation Zrotation
							End Site
							{
								OFFSET 0.000000 26.061493 0.000000
							}
						}
						JOINT HairMidC
						{
							OFFSET 0.466600 27.991196 -17.375099
							CHANNELS 3 Xrotation Yrotation Zrotation
							End Site
							{
								OFFSET 0.000000 26.061493 0.000000
							}
						}
						JOINT HairMidD
						{
							OFFSET 0.467700 17.888092 -21.169500
							CHANNELS 3 Xrotation Yrotation Zrotation
							End Site
							{
								OFFSET 0.000000 26.061493 0.000000
							}
						}
						JOINT HairMidE
						{
							OFFSET 5.325700 3.514603 -14.369699
							CHANNELS 3 Xrotation Yrotation Zrotation
							End Site
							{
								OFFSET 0.000000 26.061493 0.000000
							}
						}
						JOINT HairMidF
						{
							OFFSET -4.394100 3.514603 -14.372400
							CHANNELS 3 Xrotation Yrotation Zrotation
							End Site
							{
								OFFSET 0.000000 26.061493 0.000000
							}
						}
						JOINT HairLeftA
						{
							OFFSET 15.319900 25.746506 2.623300
							CHANNELS 3 Xrotation Yrotation Zrotation
							End Site
							{
								OFFSET 0.000000 26.061493 0.000000
							}
						}
						JOINT HairLeftB
						{
							OFFSET 12.619500 29.289398 -8.731499
							CHANNELS 3 Xrotation Yrotation Zrotation
							End Site
							{
								OFFSET 0.000000 26.061493 0.000000
							}
						}
						JOINT HairLeftC
						{
							OFFSET 15.714800 15.959900 2.909800
							CHANNELS 3 Xrotation Yrotation Zrotation
							End Site
							{
								OFFSET 0.000000 26.061493 0.000000
							}
						}
						JOINT HairLeftD
						{
							OFFSET 16.101700 18.437408 -7.553200
							CHANNELS 3 Xrotation Yrotation Zrotation
							End Site
							{
								OFFSET 0.000000 26.061493 0.000000
							}
						}
						JOINT HairLeftE
						{
							OFFSET 9.731900 17.915009 -18.316799
							CHANNELS 3 Xrotation Yrotation Zrotation
							End Site
							{
								OFFSET 0.000000 26.061493 0.000000
							}
						}
						JOINT HairLeftF
						{
							OFFSET 11.204300 4.953598 -9.668100
							CHANNELS 3 Xrotation Yrotation Zrotation
							End Site
							{
								OFFSET 0.000000 26.061493 0.000000
							}
						}
						JOINT HairRightA
						{
							OFFSET -14.397900 25.746307 2.615100
							CHANNELS 3 Xrotation Yrotation Zrotation
							End Site
							{
								OFFSET 0.000000 26.061493 0.000000
							}
						}
						JOINT HairRightB
						{
							OFFSET -11.691200 29.289200 -8.738199
							CHANNELS 3 Xrotation Yrotation Zrotation
							End Site
							{
								OFFSET 0.000000 26.061493 0.000000
							}
						}
						JOINT HairRightC
						{
							OFFSET -14.792900 15.959702 2.901400
							CHANNELS 3 Xrotation Yrotation Zrotation
							End Site
							{
								OFFSET 0.000000 26.061493 0.000000
							}
						}
						JOINT HairRightD
						{
							OFFSET -15.174000 18.437195 -7.561900
							CHANNELS 3 Xrotation Yrotation Zrotation
							End Site
							{
								OFFSET 0.000000 26.061493 0.000000
							}
						}
						JOINT HairRightE
						{
							OFFSET -8.798200 17.914902 -18.322001
							CHANNELS 3 Xrotation Yrotation Zrotation
							End Site
							{
								OFFSET 0.000000 26.061493 0.000000
							}
						}
						JOINT HairRightF
						{
							OFFSET -10.275200 4.953506 -9.674099
							CHANNELS 3 Xrotation Yrotation Zrotation
							End Site
							{
								OFFSET 0.000000 26.061493 0.000000
							}
						}
					}
				}
				JOINT LeftShoulder
				{
					OFFSET 5.133500 7.341202 -1.867600
					CHANNELS 3 Xrotation Yrotation Zrotation
					JOINT LeftArm
					{
						OFFSET 8.072663 0.936867 -2.176600
						CHANNELS 3 Xrotation Yrotation Zrotation
						JOINT LeftForeArm
						{
							OFFSET 31.271999 0.000000 0.000000
							CHANNELS 3 Xrotation Yrotation Zrotation
							JOINT LeftHand
							{
								OFFSET 31.771030 0.000000 0.000000
								CHANNELS 3 Xrotation Yrotation Zrotation
								JOINT LeftHandThumb1
								{
									OFFSET 2.886520 -2.557846 4.416640
									CHANNELS 3 Xrotation Yrotation Zrotation
									JOINT LeftHandThumb2
									{
										OFFSET 2.371025 -1.368912 1.368911
										CHANNELS 3 Xrotation Yrotation Zrotation
										JOINT LeftHandThumb3
										{
											OFFSET 2.243378 -1.295212 1.295213
											CHANNELS 3 Xrotation Yrotation Zrotation
											End Site
											{
												OFFSET -0.332611 2.876945 0.020015
											}
										}
									}
								}
								JOINT LeftHandIndex1
								{
									OFFSET 8.568985 -0.641945 3.119977
									CHANNELS 3 Xrotation Yrotation Zrotation
									JOINT LeftHandIndex2
									{
										OFFSET 3.348503 0.000000 0.000000
										CHANNELS 3 Xrotation Yrotation Zrotation
										JOINT LeftHandIndex3
										{
											OFFSET 3.314552 0.000000 0.000000
											CHANNELS 3 Xrotation Yrotation Zrotation
											End Site
											{
												OFFSET -1.032898 3.075485 0.678796
											}
										}
									}
								}
								JOINT LeftHandMiddle1
								{
									OFFSET 8.124603 0.000000 0.000000
									CHANNELS 3 Xrotation Yrotation Zrotation
									JOINT LeftHandMiddle2
									{
										OFFSET 4.166275 0.000000 0.000000
										CHANNELS 3 Xrotation Yrotation Zrotation
										JOINT LeftHandMiddle3
										{
											OFFSET 3.018135 0.000000 0.000000
											CHANNELS 3 Xrotation Yrotation Zrotation
											End Site
											{
												OFFSET -1.032700 2.767982 0.617226
											}
										}
									}
								}
								JOINT LeftHandRing1
								{
									OFFSET 8.571686 -0.031357 -2.884048
									CHANNELS 3 Xrotation Yrotation Zrotation
									JOINT LeftHandRing2
									{
										OFFSET 3.671181 0.000000 0.000000
										CHANNELS 3 Xrotation Yrotation Zrotation
										JOINT LeftHandRing3
										{
											OFFSET 2.728851 0.000000 0.000000
											CHANNELS 3 Xrotation Yrotation Zrotation
											End Site
											{
												OFFSET -0.815796 2.539223 0.577389
											}
										}
									}
								}
								JOINT LeftHandPinky1
								{
									OFFSET 7.854515 -0.675232 -5.213020
									CHANNELS 3 Xrotation Yrotation Zrotation
									JOINT LeftHandPinky2
									{
										OFFSET 3.068596 0.000000 0.000000
										CHANNELS 3 Xrotation Yrotation Zrotation
										JOINT LeftHandPinky3
										{
											OFFSET 2.396042 0.000000 0.000000
											CHANNELS 3 Xrotation Yrotation Zrotation
											End Site
											{
												OFFSET -0.524597 2.267998 0.567429
											}
										}
									}
								}
							}
							JOINT LeftSleeve
							{
								OFFSET 19.684509 -0.200119 0.476146
								CHANNELS 3 Xrotation Yrotation Zrotation
								End Site
								{
									OFFSET -0.031017 25.731133 -0.002868
								}
							}
						}
					}
				}
				JOINT RightShoulder
				{
					OFFSET -4.395900 7.341202 -1.870200
					CHANNELS 3 Xrotation Yrotation Zrotation
					JOINT RightArm
					{
						OFFSET -8.071453 0.936867 -2.181100
						CHANNELS 3 Xrotation Yrotation Zrotation
						JOINT RightForeArm
						{
							OFFSET -31.272011 0.000000 0.000000
							CHANNELS 3 Xrotation Yrotation Zrotation
							JOINT RightHand
							{
								OFFSET -31.771019 0.000000 0.000000
								CHANNELS 3 Xrotation Yrotation Zrotation
								JOINT RightHandThumb1
								{
									OFFSET -2.886520 -2.557808 4.416626
									CHANNELS 3 Xrotation Yrotation Zrotation
									JOINT RightHandThumb2
									{
										OFFSET -2.371056 -1.368927 1.368928
										CHANNELS 3 Xrotation Yrotation Zrotation
										JOINT RightHandThumb3
										{
											OFFSET -2.243362 -1.295204 1.295206
											CHANNELS 3 Xrotation Yrotation Zrotation
											End Site
											{
												OFFSET 0.332642 2.876938 0.020047
											}
										}
									}
								}
								JOINT RightHandIndex1
								{
									OFFSET -8.568993 -0.641953 3.120017
									CHANNELS 3 Xrotation Yrotation Zrotation
									JOINT RightHandIndex2
									{
										OFFSET -3.348518 0.000000 0.000000
										CHANNELS 3 Xrotation Yrotation Zrotation
										JOINT RightHandIndex3
										{
											OFFSET -3.314552 0.000000 0.000000
											CHANNELS 3 Xrotation Yrotation Zrotation
											End Site
											{
												OFFSET 1.032898 3.075478 0.678804
											}
										}
									}
								}
								JOINT RightHandMiddle1
								{
									OFFSET -8.124588 0.000000 0.000000
									CHANNELS 3 Xrotation Yrotation Zrotation
									JOINT RightHandMiddle2
									{
										OFFSET -4.166275 0.000000 0.000000
										CHANNELS 3 Xrotation Yrotation Zrotation
										JOINT RightHandMiddle3
										{
											OFFSET -3.018097 0.000000 0.000000
											CHANNELS 3 Xrotation Yrotation Zrotation
											End Site
											{
												OFFSET 1.032700 2.767937 0.617197
											}
										}
									}
								}
								JOINT RightHandRing1
								{
									OFFSET -8.571747 -0.031349 -2.884061
									CHANNELS 3 Xrotation Yrotation Zrotation
									JOINT RightHandRing2
									{
										OFFSET -3.671204 0.000000 0.000000
										CHANNELS 3 Xrotation Yrotation Zrotation
										JOINT RightHandRing3
										{
											OFFSET -2.728874 0.000000 0.000000
											CHANNELS 3 Xrotation Yrotation Zrotation
											End Site
											{
												OFFSET 0.815804 2.539261 0.577413
											}
										}
									}
								}
								JOINT RightHandPinky1
								{
									OFFSET -7.854561 -0.675247 -5.212970
									CHANNELS 3 Xrotation Yrotation Zrotation
									JOINT RightHandPinky2
									{
										OFFSET -3.068550 0.000000 0.000000
										CHANNELS 3 Xrotation Yrotation Zrotation
										JOINT RightHandPinky3
										{
											OFFSET -2.395981 0.000000 0.000000
											CHANNELS 3 Xrotation Yrotation Zrotation
											End Site
											{
												OFFSET 0.524605 2.267952 0.567413
											}
										}
									}
								}
							}
							JOINT RightSleeve
							{
								OFFSET -19.684753 -0.200165 0.476065
								CHANNELS 3 Xrotation Yrotation Zrotation
								End Site
								{
									OFFSET 0.031342 25.731255 -0.002917
								}
							}
						}
					}
				}
				JOINT Hood
				{
					OFFSET 0.369700 14.447800 -5.317800
					CHANNELS 3 Xrotation Yrotation Zrotation
					JOINT Hood1
					{
						OFFSET 0.001700 -5.553802 -5.895100
						CHANNELS 3 Xrotation Yrotation Zrotation
						JOINT Hood2
						{
							OFFSET -0.000200 -8.380501 0.763600
							CHANNELS 3 Xrotation Yrotation Zrotation
							End Site
							{
								OFFSET 0.000000 8.415215 0.000000
							}
						}
					}
				}
				JOINT Left_Breast
				{
					OFFSET 5.682500 3.120102 3.188800
					CHANNELS 3 Xrotation Yrotation Zrotation
					End Site
					{
						OFFSET 0.000000 10.528564 0.000000
					}
				}
				JOINT Right_Breast
				{
					OFFSET -4.947600 3.120102 3.185900
					CHANNELS 3 Xrotation Yrotation Zrotation
					End Site
					{
						OFFSET 0.000000 10.528564 0.000000
					}
				}
				JOINT Whistle
				{
					OFFSET 0.368200 11.471298 0.095400
					CHANNELS 3 Xrotation Yrotation Zrotation
					JOINT Whistle1
					{
						OFFSET -0.002000 -6.349899 7.479800
						CHANNELS 3 Xrotation Yrotation Zrotation
						JOINT Whistle2
						{
							OFFSET -0.001300 -8.217598 4.717600
							CHANNELS 3 Xrotation Yrotation Zrotation
							End Site
							{
								OFFSET 0.000000 9.475479 0.000000
							}
						}
					}
				}
			}
		}
		JOINT Belly
		{
			OFFSET 0.212400 1.593002 3.163700
			CHANNELS 3 Xrotation Yrotation Zrotation
			End Site
			{
				OFFSET 0.000000 7.496635 0.000000
			}
		}
	}
	JOINT FitGrandmaFacialAnim_Joint
	{
		OFFSET 1.150000 -86.211197 -1.220100
		CHANNELS 3 Xrotation Yrotation Zrotation
		End Site
		{
			OFFSET 0.000000 31.666618 0.000000
		}
	}
}
MOTION
Frames: 4
Frame Time: 0.016667
-0.219458 182.312592 2.631027 -4.561278 4.945623 3.946249 0.000000 0.000000 0.000000 -1.800984 16.915114 7.447243 9.557871 -8.280144 -0.397844 -5.252209 0.585173 -6.385665 -0.000000 0.000001 0.000000 0.000001 0.000001 0.000000 -0.000000 0.000001 0.000001 2.297496 -10.846877 -4.804745 23.604920 6.206052 0.311590 -30.428090 -1.382563 4.156162 -0.000000 -0.000000 -0.000000 -0.000001 -0.000000 -0.000000 0.000000 0.000001 0.000000 4.647423 -0.724862 1.593308 9.932386 -0.680238 3.008161 9.936602 -0.617924 3.002060 -0.494624 1.768445 -5.437059 5.110712 1.939358 -6.547525 -0.000000 -0.000000 0.000000 -0.000000 -0.000000 0.000000 -0.000000 -0.000000 0.000000 -0.000000 -0.000000 0.000000 -0.000000 -0.000000 0.000000 -0.000000 -0.000000 0.000000 -0.000000 -0.000000 0.000000 -0.000000 -0.000000 0.000000 -0.000000 -0.000000 0.000000 -0.000000 -0.000000 0.000000 -0.000000 -0.000000 0.000000 -0.000000 -0.000000 0.000000 -0.000000 -0.000000 0.000000 -0.000000 -0.000000 0.000000 -0.000000 -0.000000 0.000000 -0.000000 -0.000000 0.000000 -0.000000 -0.000000 0.000000 -0.000000 -0.000000 0.000000 -0.000000 -0.000000 0.000000 -0.221754 14.341896 -11.465857 4.441022 -10.208757 -60.164466 -0.000017 -50.304446 -0.000008 20.413444 -0.668135 -4.134524 -3.500353 23.141811 9.972880 -2.408842 12.775493 10.381864 0.000000 0.000002 0.000002 0.080928 1.054710 -8.775013 0.139260 1.380626 -11.520083 0.000003 -0.000001 0.000002 0.080632 1.052799 -8.759034 0.139656 1.382520 -11.536062 -0.000001 -0.000000 -0.000001 0.080920 1.054719 -8.775014 0.139266 1.380635 -11.520083 -0.000001 0.000001 0.000002 0.683421 5.064137 -8.296784 0.133623 -2.674916 -12.020546 -0.000003 -0.000001 -0.000000 0.000001 -0.000001 0.000002 1.119625 3.440112 7.346926 -5.089673 8.252990 56.488468 0.000010 38.764527 -0.000014 3.115019 -7.514415 -6.985643 -7.604784 -2.521681 -16.076747 4.602786 -15.232191 -8.617189 0.000000 0.000002 0.000003 0.672563 -2.988246 25.363100 0.151854 -1.448120 11.972162 0.000002 0.000000 -0.000000 0.672563 -2.988247 25.363093 0.151854 -1.448110 11.972165 0.000001 0.000000 -0.000000 0.672565 -2.988261 25.363108 0.151857 -1.448111 11.972152 0.000004 -0.000004 0.000000 0.672569 -2.988271 25.363093 0.151853 -1.448106 11.972152 0.000002 0.000000 -0.000000 0.000001 -0.000004 0.000001 0.000000 0.000000 -0.000000 0.000000 0.000000 -0.000000 0.000000 0.000000 -0.000000 0.000000 0.000000 -0.000000 0.000000 0.000000 -0.000000 0.000000 0.000000 -0.000000 -0.000001 -0.000000 -0.000000 -0.000001 -0.000000 -0.000000 0.000000 0.000000 -0.000000 0.000000 0.000000 0.000000 
-0.236669 182.285080 2.608250 -4.310332 4.948060 3.936068 -0.000000 0.000001 0.000000 -2.330856 16.764361 7.500726 10.055865 -8.277385 -0.397776 -5.546622 0.605376 -6.313290 -0.000000 0.000001 0.000000 -0.000000 0.000001 0.000000 0.000001 -0.000001 0.000001 2.007259 -10.827548 -4.802313 23.643629 6.198694 0.311436 -30.565715 -1.381627 4.096424 0.000000 0.000000 -0.000000 -0.000003 0.000000 0.000000 0.000000 -0.000001 0.000000 4.618750 -0.720150 1.594186 9.886748 -0.664536 3.002677 9.891309 -0.602348 2.995065 -0.542375 1.841335 -5.558720 5.225233 2.094420 -6.610320 0.000001 -0.000000 0.000000 0.000001 -0.000000 0.000000 0.000001 -0.000000 0.000000 0.000001 -0.000000 0.000000 0.000001 -0.000000 0.000000 0.000001 -0.000000 0.000000 0.000001 -0.000000 0.000000 0.000001 -0.000000 0.000000 0.000001 -0.000000 0.000000 0.000001 -0.000000 0.000000 0.000001 -0.000000 0.000000 0.000001 -0.000000 0.000000 0.000001 -0.000000 0.000000 0.000001 -0.000000 0.000000 0.000001 -0.000000 0.000000 0.000001 -0.000000 0.000000 0.000001 -0.000000 0.000000 0.000001 -0.000000 0.000000 0.000001 -0.000000 0.000000 -0.219942 14.506516 -11.612861 4.361426 -10.445359 -59.944657 -0.000005 -50.526314 0.000004 20.043448 -0.258917 -4.095638 -3.500339 23.141782 9.972863 -2.408851 12.775505 10.381867 -0.000001 0.000002 0.000002 0.080931 1.054690 -8.775028 0.139264 1.380636 -11.520074 0.000001 -0.000002 0.000002 0.080624 1.052800 -8.759055 0.139660 1.382513 -11.536073 -0.000001 0.000000 -0.000003 0.080924 1.054701 -8.775033 0.139269 1.380649 -11.520076 0.000002 0.000002 0.000001 0.683423 5.064139 -8.296791 0.133624 -2.674916 -12.020544 -0.000001 0.000000 -0.000001 0.000001 0.000002 0.000001 1.111070 3.468514 7.163205 -4.424846 9.153715 56.002828 0.000017 39.178634 -0.000028 2.112969 -7.565655 -7.684059 -7.604787 -2.521677 -16.076737 4.602783 -15.232194 -8.617208 0.000000 -0.000002 -0.000003 0.672563 -2.988249 25.363090 0.151865 -1.448119 11.972155 0.000002 -0.000001 0.000001 0.672569 -2.988244 25.363084 0.151850 -1.448115 11.972157 0.000000 -0.000001 -0.000004 0.672567 -2.988259 25.363084 0.151864 -1.448110 11.972159 0.000004 -0.000001 -0.000001 0.672566 -2.988274 25.363076 0.151859 -1.448106 11.972160 -0.000002 -0.000002 -0.000001 0.000001 -0.000001 -0.000000 0.000002 0.000000 -0.000000 0.000002 0.000000 -0.000000 0.000002 0.000000 -0.000000 0.000002 0.000000 -0.000000 0.000002 0.000000 -0.000000 0.000002 0.000000 -0.000000 0.000000 -0.000001 -0.000000 0.000000 -0.000001 -0.000000 -0.000000 -0.000000 -0.000001 -0.000000 0.000001 0.000000 
-0.249369 182.252533 2.583744 -4.047586 4.970485 3.928663 0.000000 -0.000000 0.000000 -2.937142 16.608664 7.550366 10.704322 -8.098560 -0.388596 -5.940899 0.635645 -6.263273 0.000000 0.000002 0.000000 -0.000000 0.000001 -0.000000 0.000001 -0.000001 -0.000000 1.691688 -10.807255 -4.804893 23.714461 6.177609 0.310646 -30.729260 -1.381790 4.033943 -0.000001 0.000000 -0.000000 -0.000003 0.000000 -0.000000 -0.000000 -0.000000 0.000000 4.586484 -0.718666 1.589511 9.837530 -0.656225 2.999173 9.842313 -0.594124 2.990730 -0.552501 1.913020 -5.689796 5.267441 2.253984 -6.652773 -0.000001 -0.000000 0.000000 -0.000001 -0.000000 0.000000 -0.000001 -0.000000 0.000000 -0.000001 -0.000000 0.000000 -0.000001 -0.000000 0.000000 -0.000001 -0.000000 0.000000 -0.000001 -0.000000 0.000000 -0.000001 -0.000000 0.000000 -0.000001 -0.000000 0.000000 -0.000001 -0.000000 0.000000 -0.000001 -0.000000 0.000000 -0.000001 -0.000000 0.000000 -0.000001 -0.000000 0.000000 -0.000001 -0.000000 0.000000 -0.000001 -0.000000 0.000000 -0.000001 -0.000000 0.000000 -0.000001 -0.000000 0.000000 -0.000001 -0.000000 0.000000 -0.000001 -0.000000 0.000000 -0.217722 14.595752 -11.694877 4.265775 -10.605523 -59.786306 -0.000010 -50.764107 -0.000008 19.817295 0.066145 -4.103494 -3.500348 23.141815 9.972880 -2.408857 12.775500 10.381866 0.000002 0.000001 0.000000 0.080923 1.054723 -8.774992 0.139275 1.380608 -11.520086 -0.000002 0.000001 0.000001 0.080627 1.052809 -8.759018 0.139658 1.382515 -11.536054 -0.000006 -0.000001 0.000004 0.080924 1.054728 -8.774977 0.139275 1.380627 -11.520085 0.000001 -0.000000 -0.000002 0.683423 5.064149 -8.296751 0.133607 -2.674908 -12.020558 -0.000001 0.000002 0.000001 0.000000 0.000000 0.000001 1.104807 3.548996 6.940643 -3.653390 10.119987 55.385249 0.000015 39.770733 -0.000009 0.971898 -7.983118 -7.726995 -7.604790 -2.521686 -16.076742 4.602780 -15.232193 -8.617209 -0.000000 -0.000000 0.000002 0.672562 -2.988250 25.363090 0.151847 -1.448123 11.972184 0.000000 -0.000001 0.000001 0.672562 -2.988259 25.363084 0.151865 -1.448118 11.972174 0.000003 -0.000001 -0.000004 0.672566 -2.988266 25.363084 0.151850 -1.448123 11.972169 0.000002 0.000000 0.000001 0.672564 -2.988276 25.363093 0.151856 -1.448118 11.972166 -0.000006 0.000001 0.000001 -0.000001 0.000001 -0.000001 0.000001 -0.000000 0.000000 0.000001 -0.000000 0.000000 0.000001 -0.000000 0.000000 0.000001 -0.000000 0.000000 0.000001 -0.000000 0.000000 0.000001 -0.000000 -0.000001 -0.000001 -0.000001 -0.000002 -0.000001 -0.000001 -0.000002 -0.000000 -0.000000 -0.000001 0.000000 -0.000000 0.000000 
-0.258891 182.214569 2.552696 -3.772833 5.018166 3.926119 0.000000 0.000000 0.000001 -3.625274 16.463631 7.578507 11.529262 -7.593452 -0.362572 -6.429723 0.679181 -6.267399 -0.000000 0.000001 0.000000 -0.000000 -0.000002 0.000001 0.000000 -0.000001 -0.000000 1.337377 -10.784343 -4.813256 23.833286 6.135932 0.308871 -30.916267 -1.381736 3.964256 0.000000 0.000000 -0.000000 0.000000 -0.000000 -0.000000 0.000000 0.000001 -0.000000 4.553570 -0.720065 1.579160 9.789340 -0.654195 2.995625 9.794235 -0.592126 2.986811 -0.544861 1.982233 -5.822372 5.258737 2.411933 -6.675187 -0.000001 0.000001 -0.000000 -0.000001 0.000001 -0.000000 -0.000001 0.000001 -0.000000 -0.000001 0.000001 -0.000000 -0.000001 0.000001 -0.000000 -0.000001 0.000001 -0.000000 -0.000001 0.000001 -0.000000 -0.000001 0.000001 -0.000000 -0.000001 0.000001 -0.000000 -0.000001 0.000001 -0.000000 -0.000001 0.000001 -0.000000 -0.000001 0.000001 -0.000000 -0.000001 0.000001 -0.000000 -0.000001 0.000001 -0.000000 -0.000001 0.000001 -0.000000 -0.000001 0.000001 -0.000000 -0.000001 0.000001 -0.000000 -0.000001 0.000001 -0.000000 -0.000001 0.000001 -0.000000 -0.216485 14.635953 -11.728231 4.166844 -10.728391 -59.653670 -0.000020 -51.016602 -0.000021 19.677567 0.328028 -4.160761 -3.500359 23.141815 9.972906 -2.408846 12.775499 10.381875 -0.000000 0.000001 0.000002 0.080922 1.054715 -8.775015 0.139267 1.380620 -11.520077 0.000003 -0.000002 0.000004 0.080629 1.052820 -8.759025 0.139651 1.382512 -11.536065 -0.000002 0.000000 0.000001 0.080921 1.054721 -8.775027 0.139273 1.380633 -11.520069 0.000003 0.000000 0.000002 0.683420 5.064142 -8.296778 0.133615 -2.674917 -12.020551 -0.000005 -0.000001 -0.000000 -0.000000 -0.000003 0.000001 1.100244 3.659959 6.697155 -2.825910 11.105690 54.696145 0.000010 40.467174 -0.000009 -0.149441 -8.609132 -7.429774 -7.604775 -2.521672 -16.076734 4.602780 -15.232191 -8.617224 0.000000 -0.000001 -0.000003 0.672561 -2.988250 25.363096 0.151845 -1.448125 11.972169 0.000002 -0.000001 0.000003 0.672560 -2.988259 25.363105 0.151855 -1.448114 11.972172 0.000000 -0.000001 -0.000000 0.672570 -2.988257 25.363102 0.151856 -1.448118 11.972171 -0.000001 0.000000 0.000003 0.672561 -2.988277 25.363108 0.151856 -1.448108 11.972165 -0.000004 0.000000 -0.000003 -0.000001 -0.000001 0.000000 -0.000000 0.000001 0.000001 -0.000000 0.000001 0.000001 -0.000000 0.000001 0.000001 -0.000000 0.000001 0.000001 -0.000000 0.000001 0.000001 -0.000000 0.000001 0.000001 -0.000004 -0.000000 -0.000000 -0.000004 -0.000000 -0.000000 -0.000000 0.000000 -0.000000 0.000000 0.000000 0.000001 
